<svg width="116" height="320" viewBox="0 0 116 320" fill="none" xmlns="http://www.w3.org/2000/svg">
<mask id="mask0_826_164" style="mask-type:alpha" maskUnits="userSpaceOnUse" x="0" y="0" width="116" height="320">
<rect width="116" height="320" fill="#D9D9D9"/>
</mask>
<g mask="url(#mask0_826_164)">
<path d="M100.252 168.815C100.252 246.628 38.5907 309.63 -37.3777 309.63C-113.346 309.63 -175.007 246.628 -175.007 168.815C-175.007 91.0023 -113.346 28 -37.3777 28C38.5907 28 100.252 91.0023 100.252 168.815Z" stroke="#5AB978" stroke-width="4"/>
<ellipse cx="-37.378" cy="168.815" rx="129.274" ry="132.37" fill="#5AB978" fill-opacity="0.2"/>
<path d="M64.765 168.815C64.765 226.736 18.9636 273.605 -37.4324 273.605C-93.8285 273.605 -139.63 226.736 -139.63 168.815C-139.63 110.895 -93.8285 64.0255 -37.4324 64.0255C18.9636 64.0255 64.765 110.895 64.765 168.815Z" stroke="white" stroke-width="4"/>
</g>
</svg>
