<svg width="85" height="85" viewBox="0 0 85 85" fill="none" xmlns="http://www.w3.org/2000/svg">
<path fill-rule="evenodd" clip-rule="evenodd" d="M42.4998 85C65.9718 85 84.9996 65.9721 84.9996 42.5C84.9996 19.0279 65.9718 0 42.4998 0C19.0278 0 0 19.0279 0 42.5C0 65.9721 19.0278 85 42.4998 85ZM54.6259 30.4202C50.8061 31.325 48.443 35.1551 49.3478 38.975C50.2526 42.7948 54.0827 45.1579 57.9025 44.2531C61.7223 43.3483 64.0854 39.5182 63.1806 35.6983C62.2758 31.8785 58.4457 29.5154 54.6259 30.4202ZM47.4016 39.436C46.2422 34.5412 49.2702 29.6334 54.1649 28.474C59.0596 27.3145 63.9674 30.3426 65.1268 35.2373C66.2449 39.9574 63.469 44.6896 58.8803 46.061C66.6995 47.3214 72.7181 54.1411 72.7181 62.3025C72.7181 66.1587 69.5918 69.2855 65.7361 69.2845H65.7358H46.8004C42.945 69.2845 39.8184 66.159 39.8184 62.3025C39.8184 54.1439 45.8328 47.326 53.6481 46.0623C50.6376 45.1567 48.1783 42.7152 47.4016 39.436ZM41.8184 62.3025C41.8184 54.3573 48.3231 47.8525 56.2682 47.8525C64.2134 47.8525 70.7181 54.3573 70.7181 62.3025C70.7181 65.0546 68.4868 67.2854 65.7364 67.2845H65.7361H46.8004C44.0494 67.2845 41.8184 65.0543 41.8184 62.3025ZM21.4853 16.1265C17.6654 17.0313 15.3023 20.8614 16.2071 24.6813C17.112 28.5011 20.942 30.8642 24.7619 29.9594C28.5817 29.0546 30.9448 25.2245 30.04 21.4046C29.1352 17.5848 25.3051 15.2217 21.4853 16.1265ZM14.2609 25.1423C13.1015 20.2476 16.1296 15.3397 21.0243 14.1803C25.919 13.0209 30.8268 16.0489 31.9862 20.9436C33.1043 25.6638 30.3282 30.3961 25.7394 31.7674C33.5588 33.0276 39.5775 39.8475 39.5775 48.0089C39.5775 51.8651 36.4512 54.992 32.5955 54.991H32.5952H13.6597C9.80442 54.991 6.67773 51.8655 6.67773 48.0089C6.67773 39.8503 12.6923 33.0323 20.5078 31.7687C17.4971 30.8631 15.0377 28.4216 14.2609 25.1423ZM8.67773 48.0089C8.67773 40.0637 15.1825 33.559 23.1276 33.559C31.0727 33.559 37.5775 40.0637 37.5775 48.0089C37.5775 50.761 35.3462 52.9918 32.5958 52.991L32.5955 52.991H13.6597C10.9088 52.991 8.67773 50.7607 8.67773 48.0089Z" fill="white"/>
</svg>
