<svg width="85" height="85" viewBox="0 0 85 85" fill="none" xmlns="http://www.w3.org/2000/svg">
<path fill-rule="evenodd" clip-rule="evenodd" d="M42.5 85C65.9721 85 85 65.9721 85 42.5C85 19.0279 65.9721 0 42.5 0C19.0279 0 0 19.0279 0 42.5C0 65.9721 19.0279 85 42.5 85ZM51.5569 25.6073C51.5569 20.0213 47.0294 15.4941 41.4452 15.4954H41.445C35.8604 15.4954 31.333 20.0228 31.333 25.6073C31.333 31.1919 35.8604 35.7193 41.445 35.7193C47.0295 35.7193 51.5569 31.1919 51.5569 25.6073ZM41.445 13.4954C48.1343 13.494 53.5569 18.917 53.5569 25.6073C53.5569 32.0492 48.5275 37.3167 42.1813 37.6973C41.9366 37.6892 41.691 37.6851 41.4444 37.6851C41.1981 37.6851 40.9527 37.6892 40.7083 37.6972C34.3622 37.3165 29.333 32.0491 29.333 25.6073C29.333 18.9183 34.7557 13.4955 41.4447 13.4954H41.445ZM40.7083 37.6972C28.8471 38.0889 19.2695 47.9078 19.2695 59.86C19.2695 64.9409 23.3888 69.0586 28.4682 69.0586H54.4203H54.4206C59.5031 69.06 63.6207 64.9405 63.6207 59.86C63.6207 47.908 54.0434 38.0892 42.1813 37.6973C41.9377 37.7119 41.6922 37.7193 41.445 37.7193C41.1976 37.7193 40.952 37.7119 40.7083 37.6972ZM21.2695 59.86C21.2695 48.7661 30.3505 39.6851 41.4444 39.6851C52.5397 39.6851 61.6207 48.7661 61.6207 59.86C61.6207 63.8364 58.3982 67.0599 54.4209 67.0586H54.4206H28.4682C24.4932 67.0586 21.2695 63.8361 21.2695 59.86Z" fill="white"/>
</svg>
