<svg width="62" height="246" viewBox="0 0 62 246" fill="none" xmlns="http://www.w3.org/2000/svg">
<path d="M4 2.6L0 0.690599V5.3094L4 3.4V2.6ZM61 3H61.4C61.4 2.77909 61.2209 2.6 61 2.6V3ZM61 243V243.4C61.2209 243.4 61.4 243.221 61.4 243H61ZM9.71716 242.717C9.56095 242.873 9.56095 243.127 9.71716 243.283L12.2627 245.828C12.419 245.985 12.6722 245.985 12.8284 245.828C12.9846 245.672 12.9846 245.419 12.8284 245.263L10.5657 243L12.8284 240.737C12.9846 240.581 12.9846 240.328 12.8284 240.172C12.6722 240.015 12.419 240.015 12.2627 240.172L9.71716 242.717ZM0.508333 3.4C0.729247 3.4 0.908333 3.22091 0.908333 3C0.908333 2.77909 0.729247 2.6 0.508333 2.6V3.4ZM2.54167 2.6C2.32075 2.6 2.14167 2.77909 2.14167 3C2.14167 3.22091 2.32075 3.4 2.54167 3.4V2.6ZM5.59167 3.4C5.81258 3.4 5.99167 3.22091 5.99167 3C5.99167 2.77909 5.81258 2.6 5.59167 2.6V3.4ZM9.65833 2.6C9.43742 2.6 9.25833 2.77909 9.25833 3C9.25833 3.22091 9.43742 3.4 9.65833 3.4V2.6ZM10.675 3.4C10.8959 3.4 11.075 3.22091 11.075 3C11.075 2.77909 10.8959 2.6 10.675 2.6V3.4ZM12.7083 2.6C12.4874 2.6 12.3083 2.77909 12.3083 3C12.3083 3.22091 12.4874 3.4 12.7083 3.4V2.6ZM15.7583 3.4C15.9792 3.4 16.1583 3.22091 16.1583 3C16.1583 2.77909 15.9792 2.6 15.7583 2.6V3.4ZM19.825 2.6C19.6041 2.6 19.425 2.77909 19.425 3C19.425 3.22091 19.6041 3.4 19.825 3.4V2.6ZM20.8417 3.4C21.0626 3.4 21.2417 3.22091 21.2417 3C21.2417 2.77909 21.0626 2.6 20.8417 2.6V3.4ZM22.875 2.6C22.6541 2.6 22.475 2.77909 22.475 3C22.475 3.22091 22.6541 3.4 22.875 3.4V2.6ZM25.925 3.4C26.1459 3.4 26.325 3.22091 26.325 3C26.325 2.77909 26.1459 2.6 25.925 2.6V3.4ZM29.9917 2.6C29.7708 2.6 29.5917 2.77909 29.5917 3C29.5917 3.22091 29.7708 3.4 29.9917 3.4V2.6ZM31.0083 3.4C31.2292 3.4 31.4083 3.22091 31.4083 3C31.4083 2.77909 31.2292 2.6 31.0083 2.6V3.4ZM33.0417 2.6C32.8208 2.6 32.6417 2.77909 32.6417 3C32.6417 3.22091 32.8208 3.4 33.0417 3.4V2.6ZM36.0917 3.4C36.3126 3.4 36.4917 3.22091 36.4917 3C36.4917 2.77909 36.3126 2.6 36.0917 2.6V3.4ZM40.1583 2.6C39.9374 2.6 39.7583 2.77909 39.7583 3C39.7583 3.22091 39.9374 3.4 40.1583 3.4V2.6ZM41.175 3.4C41.3959 3.4 41.575 3.22091 41.575 3C41.575 2.77909 41.3959 2.6 41.175 2.6V3.4ZM43.2083 2.6C42.9874 2.6 42.8083 2.77909 42.8083 3C42.8083 3.22091 42.9874 3.4 43.2083 3.4V2.6ZM46.2583 3.4C46.4792 3.4 46.6583 3.22091 46.6583 3C46.6583 2.77909 46.4792 2.6 46.2583 2.6V3.4ZM50.325 2.6C50.1041 2.6 49.925 2.77909 49.925 3C49.925 3.22091 50.1041 3.4 50.325 3.4V2.6ZM51.3417 3.4C51.5626 3.4 51.7417 3.22091 51.7417 3C51.7417 2.77909 51.5626 2.6 51.3417 2.6V3.4ZM53.375 2.6C53.1541 2.6 52.975 2.77909 52.975 3C52.975 3.22091 53.1541 3.4 53.375 3.4V2.6ZM56.425 3.4C56.6459 3.4 56.825 3.22091 56.825 3C56.825 2.77909 56.6459 2.6 56.425 2.6V3.4ZM60.4917 2.6C60.2707 2.6 60.0917 2.77909 60.0917 3C60.0917 3.22091 60.2707 3.4 60.4917 3.4V2.6ZM60.6 3.5C60.6 3.72091 60.7791 3.9 61 3.9C61.2209 3.9 61.4 3.72091 61.4 3.5H60.6ZM61.4 5.5C61.4 5.27909 61.2209 5.1 61 5.1C60.7791 5.1 60.6 5.27909 60.6 5.5H61.4ZM60.6 8.5C60.6 8.72091 60.7791 8.9 61 8.9C61.2209 8.9 61.4 8.72091 61.4 8.5H60.6ZM61.4 12.5C61.4 12.2791 61.2209 12.1 61 12.1C60.7791 12.1 60.6 12.2791 60.6 12.5H61.4ZM60.6 13.5C60.6 13.7209 60.7791 13.9 61 13.9C61.2209 13.9 61.4 13.7209 61.4 13.5H60.6ZM61.4 15.5C61.4 15.2791 61.2209 15.1 61 15.1C60.7791 15.1 60.6 15.2791 60.6 15.5H61.4ZM60.6 18.5C60.6 18.7209 60.7791 18.9 61 18.9C61.2209 18.9 61.4 18.7209 61.4 18.5H60.6ZM61.4 22.5C61.4 22.2791 61.2209 22.1 61 22.1C60.7791 22.1 60.6 22.2791 60.6 22.5H61.4ZM60.6 23.5C60.6 23.7209 60.7791 23.9 61 23.9C61.2209 23.9 61.4 23.7209 61.4 23.5H60.6ZM61.4 25.5C61.4 25.2791 61.2209 25.1 61 25.1C60.7791 25.1 60.6 25.2791 60.6 25.5H61.4ZM60.6 28.5C60.6 28.7209 60.7791 28.9 61 28.9C61.2209 28.9 61.4 28.7209 61.4 28.5H60.6ZM61.4 32.5C61.4 32.2791 61.2209 32.1 61 32.1C60.7791 32.1 60.6 32.2791 60.6 32.5H61.4ZM60.6 33.5C60.6 33.7209 60.7791 33.9 61 33.9C61.2209 33.9 61.4 33.7209 61.4 33.5H60.6ZM61.4 35.5C61.4 35.2791 61.2209 35.1 61 35.1C60.7791 35.1 60.6 35.2791 60.6 35.5H61.4ZM60.6 38.5C60.6 38.7209 60.7791 38.9 61 38.9C61.2209 38.9 61.4 38.7209 61.4 38.5H60.6ZM61.4 42.5C61.4 42.2791 61.2209 42.1 61 42.1C60.7791 42.1 60.6 42.2791 60.6 42.5H61.4ZM60.6 43.5C60.6 43.7209 60.7791 43.9 61 43.9C61.2209 43.9 61.4 43.7209 61.4 43.5H60.6ZM61.4 45.5C61.4 45.2791 61.2209 45.1 61 45.1C60.7791 45.1 60.6 45.2791 60.6 45.5H61.4ZM60.6 48.5C60.6 48.7209 60.7791 48.9 61 48.9C61.2209 48.9 61.4 48.7209 61.4 48.5H60.6ZM61.4 52.5C61.4 52.2791 61.2209 52.1 61 52.1C60.7791 52.1 60.6 52.2791 60.6 52.5H61.4ZM60.6 53.5C60.6 53.7209 60.7791 53.9 61 53.9C61.2209 53.9 61.4 53.7209 61.4 53.5H60.6ZM61.4 55.5C61.4 55.2791 61.2209 55.1 61 55.1C60.7791 55.1 60.6 55.2791 60.6 55.5H61.4ZM60.6 58.5C60.6 58.7209 60.7791 58.9 61 58.9C61.2209 58.9 61.4 58.7209 61.4 58.5H60.6ZM61.4 62.5C61.4 62.2791 61.2209 62.1 61 62.1C60.7791 62.1 60.6 62.2791 60.6 62.5H61.4ZM60.6 63.5C60.6 63.7209 60.7791 63.9 61 63.9C61.2209 63.9 61.4 63.7209 61.4 63.5H60.6ZM61.4 65.5C61.4 65.2791 61.2209 65.1 61 65.1C60.7791 65.1 60.6 65.2791 60.6 65.5H61.4ZM60.6 68.5C60.6 68.7209 60.7791 68.9 61 68.9C61.2209 68.9 61.4 68.7209 61.4 68.5H60.6ZM61.4 72.5C61.4 72.2791 61.2209 72.1 61 72.1C60.7791 72.1 60.6 72.2791 60.6 72.5H61.4ZM60.6 73.5C60.6 73.7209 60.7791 73.9 61 73.9C61.2209 73.9 61.4 73.7209 61.4 73.5H60.6ZM61.4 75.5C61.4 75.2791 61.2209 75.1 61 75.1C60.7791 75.1 60.6 75.2791 60.6 75.5H61.4ZM60.6 78.5C60.6 78.7209 60.7791 78.9 61 78.9C61.2209 78.9 61.4 78.7209 61.4 78.5H60.6ZM61.4 82.5C61.4 82.2791 61.2209 82.1 61 82.1C60.7791 82.1 60.6 82.2791 60.6 82.5H61.4ZM60.6 83.5C60.6 83.7209 60.7791 83.9 61 83.9C61.2209 83.9 61.4 83.7209 61.4 83.5H60.6ZM61.4 85.5C61.4 85.2791 61.2209 85.1 61 85.1C60.7791 85.1 60.6 85.2791 60.6 85.5H61.4ZM60.6 88.5C60.6 88.7209 60.7791 88.9 61 88.9C61.2209 88.9 61.4 88.7209 61.4 88.5H60.6ZM61.4 92.5C61.4 92.2791 61.2209 92.1 61 92.1C60.7791 92.1 60.6 92.2791 60.6 92.5H61.4ZM60.6 93.5C60.6 93.7209 60.7791 93.9 61 93.9C61.2209 93.9 61.4 93.7209 61.4 93.5H60.6ZM61.4 95.5C61.4 95.2791 61.2209 95.1 61 95.1C60.7791 95.1 60.6 95.2791 60.6 95.5H61.4ZM60.6 98.5C60.6 98.7209 60.7791 98.9 61 98.9C61.2209 98.9 61.4 98.7209 61.4 98.5H60.6ZM61.4 102.5C61.4 102.279 61.2209 102.1 61 102.1C60.7791 102.1 60.6 102.279 60.6 102.5H61.4ZM60.6 103.5C60.6 103.721 60.7791 103.9 61 103.9C61.2209 103.9 61.4 103.721 61.4 103.5H60.6ZM61.4 105.5C61.4 105.279 61.2209 105.1 61 105.1C60.7791 105.1 60.6 105.279 60.6 105.5H61.4ZM60.6 108.5C60.6 108.721 60.7791 108.9 61 108.9C61.2209 108.9 61.4 108.721 61.4 108.5H60.6ZM61.4 112.5C61.4 112.279 61.2209 112.1 61 112.1C60.7791 112.1 60.6 112.279 60.6 112.5H61.4ZM60.6 113.5C60.6 113.721 60.7791 113.9 61 113.9C61.2209 113.9 61.4 113.721 61.4 113.5H60.6ZM61.4 115.5C61.4 115.279 61.2209 115.1 61 115.1C60.7791 115.1 60.6 115.279 60.6 115.5H61.4ZM60.6 118.5C60.6 118.721 60.7791 118.9 61 118.9C61.2209 118.9 61.4 118.721 61.4 118.5H60.6ZM61.4 122.5C61.4 122.279 61.2209 122.1 61 122.1C60.7791 122.1 60.6 122.279 60.6 122.5H61.4ZM60.6 123.5C60.6 123.721 60.7791 123.9 61 123.9C61.2209 123.9 61.4 123.721 61.4 123.5H60.6ZM61.4 125.5C61.4 125.279 61.2209 125.1 61 125.1C60.7791 125.1 60.6 125.279 60.6 125.5H61.4ZM60.6 128.5C60.6 128.721 60.7791 128.9 61 128.9C61.2209 128.9 61.4 128.721 61.4 128.5H60.6ZM61.4 132.5C61.4 132.279 61.2209 132.1 61 132.1C60.7791 132.1 60.6 132.279 60.6 132.5H61.4ZM60.6 133.5C60.6 133.721 60.7791 133.9 61 133.9C61.2209 133.9 61.4 133.721 61.4 133.5H60.6ZM61.4 135.5C61.4 135.279 61.2209 135.1 61 135.1C60.7791 135.1 60.6 135.279 60.6 135.5H61.4ZM60.6 138.5C60.6 138.721 60.7791 138.9 61 138.9C61.2209 138.9 61.4 138.721 61.4 138.5H60.6ZM61.4 142.5C61.4 142.279 61.2209 142.1 61 142.1C60.7791 142.1 60.6 142.279 60.6 142.5H61.4ZM60.6 143.5C60.6 143.721 60.7791 143.9 61 143.9C61.2209 143.9 61.4 143.721 61.4 143.5H60.6ZM61.4 145.5C61.4 145.279 61.2209 145.1 61 145.1C60.7791 145.1 60.6 145.279 60.6 145.5H61.4ZM60.6 148.5C60.6 148.721 60.7791 148.9 61 148.9C61.2209 148.9 61.4 148.721 61.4 148.5H60.6ZM61.4 152.5C61.4 152.279 61.2209 152.1 61 152.1C60.7791 152.1 60.6 152.279 60.6 152.5H61.4ZM60.6 153.5C60.6 153.721 60.7791 153.9 61 153.9C61.2209 153.9 61.4 153.721 61.4 153.5H60.6ZM61.4 155.5C61.4 155.279 61.2209 155.1 61 155.1C60.7791 155.1 60.6 155.279 60.6 155.5H61.4ZM60.6 158.5C60.6 158.721 60.7791 158.9 61 158.9C61.2209 158.9 61.4 158.721 61.4 158.5H60.6ZM61.4 162.5C61.4 162.279 61.2209 162.1 61 162.1C60.7791 162.1 60.6 162.279 60.6 162.5H61.4ZM60.6 163.5C60.6 163.721 60.7791 163.9 61 163.9C61.2209 163.9 61.4 163.721 61.4 163.5H60.6ZM61.4 165.5C61.4 165.279 61.2209 165.1 61 165.1C60.7791 165.1 60.6 165.279 60.6 165.5H61.4ZM60.6 168.5C60.6 168.721 60.7791 168.9 61 168.9C61.2209 168.9 61.4 168.721 61.4 168.5H60.6ZM61.4 172.5C61.4 172.279 61.2209 172.1 61 172.1C60.7791 172.1 60.6 172.279 60.6 172.5H61.4ZM60.6 173.5C60.6 173.721 60.7791 173.9 61 173.9C61.2209 173.9 61.4 173.721 61.4 173.5H60.6ZM61.4 175.5C61.4 175.279 61.2209 175.1 61 175.1C60.7791 175.1 60.6 175.279 60.6 175.5H61.4ZM60.6 178.5C60.6 178.721 60.7791 178.9 61 178.9C61.2209 178.9 61.4 178.721 61.4 178.5H60.6ZM61.4 182.5C61.4 182.279 61.2209 182.1 61 182.1C60.7791 182.1 60.6 182.279 60.6 182.5H61.4ZM60.6 183.5C60.6 183.721 60.7791 183.9 61 183.9C61.2209 183.9 61.4 183.721 61.4 183.5H60.6ZM61.4 185.5C61.4 185.279 61.2209 185.1 61 185.1C60.7791 185.1 60.6 185.279 60.6 185.5H61.4ZM60.6 188.5C60.6 188.721 60.7791 188.9 61 188.9C61.2209 188.9 61.4 188.721 61.4 188.5H60.6ZM61.4 192.5C61.4 192.279 61.2209 192.1 61 192.1C60.7791 192.1 60.6 192.279 60.6 192.5H61.4ZM60.6 193.5C60.6 193.721 60.7791 193.9 61 193.9C61.2209 193.9 61.4 193.721 61.4 193.5H60.6ZM61.4 195.5C61.4 195.279 61.2209 195.1 61 195.1C60.7791 195.1 60.6 195.279 60.6 195.5H61.4ZM60.6 198.5C60.6 198.721 60.7791 198.9 61 198.9C61.2209 198.9 61.4 198.721 61.4 198.5H60.6ZM61.4 202.5C61.4 202.279 61.2209 202.1 61 202.1C60.7791 202.1 60.6 202.279 60.6 202.5H61.4ZM60.6 203.5C60.6 203.721 60.7791 203.9 61 203.9C61.2209 203.9 61.4 203.721 61.4 203.5H60.6ZM61.4 205.5C61.4 205.279 61.2209 205.1 61 205.1C60.7791 205.1 60.6 205.279 60.6 205.5H61.4ZM60.6 208.5C60.6 208.721 60.7791 208.9 61 208.9C61.2209 208.9 61.4 208.721 61.4 208.5H60.6ZM61.4 212.5C61.4 212.279 61.2209 212.1 61 212.1C60.7791 212.1 60.6 212.279 60.6 212.5H61.4ZM60.6 213.5C60.6 213.721 60.7791 213.9 61 213.9C61.2209 213.9 61.4 213.721 61.4 213.5H60.6ZM61.4 215.5C61.4 215.279 61.2209 215.1 61 215.1C60.7791 215.1 60.6 215.279 60.6 215.5H61.4ZM60.6 218.5C60.6 218.721 60.7791 218.9 61 218.9C61.2209 218.9 61.4 218.721 61.4 218.5H60.6ZM61.4 222.5C61.4 222.279 61.2209 222.1 61 222.1C60.7791 222.1 60.6 222.279 60.6 222.5H61.4ZM60.6 223.5C60.6 223.721 60.7791 223.9 61 223.9C61.2209 223.9 61.4 223.721 61.4 223.5H60.6ZM61.4 225.5C61.4 225.279 61.2209 225.1 61 225.1C60.7791 225.1 60.6 225.279 60.6 225.5H61.4ZM60.6 228.5C60.6 228.721 60.7791 228.9 61 228.9C61.2209 228.9 61.4 228.721 61.4 228.5H60.6ZM61.4 232.5C61.4 232.279 61.2209 232.1 61 232.1C60.7791 232.1 60.6 232.279 60.6 232.5H61.4ZM60.6 233.5C60.6 233.721 60.7791 233.9 61 233.9C61.2209 233.9 61.4 233.721 61.4 233.5H60.6ZM61.4 235.5C61.4 235.279 61.2209 235.1 61 235.1C60.7791 235.1 60.6 235.279 60.6 235.5H61.4ZM60.6 238.5C60.6 238.721 60.7791 238.9 61 238.9C61.2209 238.9 61.4 238.721 61.4 238.5H60.6ZM61.4 242.5C61.4 242.279 61.2209 242.1 61 242.1C60.7791 242.1 60.6 242.279 60.6 242.5H61.4ZM60.49 242.6C60.2691 242.6 60.09 242.779 60.09 243C60.09 243.221 60.2691 243.4 60.49 243.4V242.6ZM58.45 243.4C58.6709 243.4 58.85 243.221 58.85 243C58.85 242.779 58.6709 242.6 58.45 242.6V243.4ZM55.39 242.6C55.1691 242.6 54.99 242.779 54.99 243C54.99 243.221 55.1691 243.4 55.39 243.4V242.6ZM51.31 243.4C51.5309 243.4 51.71 243.221 51.71 243C51.71 242.779 51.5309 242.6 51.31 242.6V243.4ZM50.29 242.6C50.0691 242.6 49.89 242.779 49.89 243C49.89 243.221 50.0691 243.4 50.29 243.4V242.6ZM48.25 243.4C48.4709 243.4 48.65 243.221 48.65 243C48.65 242.779 48.4709 242.6 48.25 242.6V243.4ZM45.19 242.6C44.9691 242.6 44.79 242.779 44.79 243C44.79 243.221 44.9691 243.4 45.19 243.4V242.6ZM41.11 243.4C41.3309 243.4 41.51 243.221 41.51 243C41.51 242.779 41.3309 242.6 41.11 242.6V243.4ZM40.09 242.6C39.8691 242.6 39.69 242.779 39.69 243C39.69 243.221 39.8691 243.4 40.09 243.4V242.6ZM38.05 243.4C38.2709 243.4 38.45 243.221 38.45 243C38.45 242.779 38.2709 242.6 38.05 242.6V243.4ZM34.99 242.6C34.7691 242.6 34.59 242.779 34.59 243C34.59 243.221 34.7691 243.4 34.99 243.4V242.6ZM30.91 243.4C31.1309 243.4 31.31 243.221 31.31 243C31.31 242.779 31.1309 242.6 30.91 242.6V243.4ZM29.89 242.6C29.6691 242.6 29.49 242.779 29.49 243C29.49 243.221 29.6691 243.4 29.89 243.4V242.6ZM27.85 243.4C28.0709 243.4 28.25 243.221 28.25 243C28.25 242.779 28.0709 242.6 27.85 242.6V243.4ZM24.79 242.6C24.5691 242.6 24.39 242.779 24.39 243C24.39 243.221 24.5691 243.4 24.79 243.4V242.6ZM20.71 243.4C20.9309 243.4 21.11 243.221 21.11 243C21.11 242.779 20.9309 242.6 20.71 242.6V243.4ZM19.69 242.6C19.4691 242.6 19.29 242.779 19.29 243C19.29 243.221 19.4691 243.4 19.69 243.4V242.6ZM17.65 243.4C17.8709 243.4 18.05 243.221 18.05 243C18.05 242.779 17.8709 242.6 17.65 242.6V243.4ZM14.59 242.6C14.3691 242.6 14.19 242.779 14.19 243C14.19 243.221 14.3691 243.4 14.59 243.4V242.6ZM10.51 243.4C10.7309 243.4 10.91 243.221 10.91 243C10.91 242.779 10.7309 242.6 10.51 242.6V243.4ZM2.54167 3.4H5.59167V2.6H2.54167V3.4ZM9.65833 3.4H10.675V2.6H9.65833V3.4ZM12.7083 3.4H15.7583V2.6H12.7083V3.4ZM19.825 3.4H20.8417V2.6H19.825V3.4ZM22.875 3.4H25.925V2.6H22.875V3.4ZM29.9917 3.4H31.0083V2.6H29.9917V3.4ZM33.0417 3.4H36.0917V2.6H33.0417V3.4ZM40.1583 3.4H41.175V2.6H40.1583V3.4ZM43.2083 3.4H46.2583V2.6H43.2083V3.4ZM50.325 3.4H51.3417V2.6H50.325V3.4ZM53.375 3.4H56.425V2.6H53.375V3.4ZM60.4917 3.4H61V2.6H60.4917V3.4ZM60.6 3V3.5H61.4V3H60.6ZM60.6 5.5V8.5H61.4V5.5H60.6ZM60.6 12.5V13.5H61.4V12.5H60.6ZM60.6 15.5V18.5H61.4V15.5H60.6ZM60.6 22.5V23.5H61.4V22.5H60.6ZM60.6 25.5V28.5H61.4V25.5H60.6ZM60.6 32.5V33.5H61.4V32.5H60.6ZM60.6 35.5V38.5H61.4V35.5H60.6ZM60.6 42.5V43.5H61.4V42.5H60.6ZM60.6 45.5V48.5H61.4V45.5H60.6ZM60.6 52.5V53.5H61.4V52.5H60.6ZM60.6 55.5V58.5H61.4V55.5H60.6ZM60.6 62.5V63.5H61.4V62.5H60.6ZM60.6 65.5V68.5H61.4V65.5H60.6ZM60.6 72.5V73.5H61.4V72.5H60.6ZM60.6 75.5V78.5H61.4V75.5H60.6ZM60.6 82.5V83.5H61.4V82.5H60.6ZM60.6 85.5V88.5H61.4V85.5H60.6ZM60.6 92.5V93.5H61.4V92.5H60.6ZM60.6 95.5V98.5H61.4V95.5H60.6ZM60.6 102.5V103.5H61.4V102.5H60.6ZM60.6 105.5V108.5H61.4V105.5H60.6ZM60.6 112.5V113.5H61.4V112.5H60.6ZM60.6 115.5V118.5H61.4V115.5H60.6ZM60.6 122.5V123.5H61.4V122.5H60.6ZM60.6 125.5V128.5H61.4V125.5H60.6ZM60.6 132.5V133.5H61.4V132.5H60.6ZM60.6 135.5V138.5H61.4V135.5H60.6ZM60.6 142.5V143.5H61.4V142.5H60.6ZM60.6 145.5V148.5H61.4V145.5H60.6ZM60.6 152.5V153.5H61.4V152.5H60.6ZM60.6 155.5V158.5H61.4V155.5H60.6ZM60.6 162.5V163.5H61.4V162.5H60.6ZM60.6 165.5V168.5H61.4V165.5H60.6ZM60.6 172.5V173.5H61.4V172.5H60.6ZM60.6 175.5V178.5H61.4V175.5H60.6ZM60.6 182.5V183.5H61.4V182.5H60.6ZM60.6 185.5V188.5H61.4V185.5H60.6ZM60.6 192.5V193.5H61.4V192.5H60.6ZM60.6 195.5V198.5H61.4V195.5H60.6ZM60.6 202.5V203.5H61.4V202.5H60.6ZM60.6 205.5V208.5H61.4V205.5H60.6ZM60.6 212.5V213.5H61.4V212.5H60.6ZM60.6 215.5V218.5H61.4V215.5H60.6ZM60.6 222.5V223.5H61.4V222.5H60.6ZM60.6 225.5V228.5H61.4V225.5H60.6ZM60.6 232.5V233.5H61.4V232.5H60.6ZM60.6 235.5V238.5H61.4V235.5H60.6ZM60.6 242.5V243H61.4V242.5H60.6ZM61 242.6H60.49V243.4H61V242.6ZM58.45 242.6H55.39V243.4H58.45V242.6ZM51.31 242.6H50.29V243.4H51.31V242.6ZM48.25 242.6H45.19V243.4H48.25V242.6ZM41.11 242.6H40.09V243.4H41.11V242.6ZM38.05 242.6H34.99V243.4H38.05V242.6ZM30.91 242.6H29.89V243.4H30.91V242.6ZM27.85 242.6H24.79V243.4H27.85V242.6ZM20.71 242.6H19.69V243.4H20.71V242.6ZM17.65 242.6H14.59V243.4H17.65V242.6ZM10.51 242.6H10V243.4H10.51V242.6Z" fill="#0F7C4B"/>
</svg>
