<svg xmlns="http://www.w3.org/2000/svg" width="160" height="76" viewBox="0 0 160 76" fill="none">
                    <path d="M110.731 70.7058C110.696 71.7971 110.715 72.8902 110.557 73.9747C110.424 74.9123 110.228 75.0981 109.237 75.0643C106.662 74.9782 104.089 74.8464 101.516 74.7636C98.4172 74.6656 95.3219 74.892 92.223 74.9055C91.5267 74.9055 91.3091 74.6673 91.3369 74.0321C91.3735 73.1875 91.3369 72.3428 91.3369 71.5083H91.3892C91.4797 68.2124 91.6068 64.9198 91.6538 61.6206C91.7164 57.3415 91.2621 53.0776 91.2325 48.8019C91.2325 48.464 91.2516 48.116 91.2185 47.7781C91.1628 47.224 91.3717 46.952 91.9741 47.0264C93.3351 47.1962 94.7129 47.1962 96.0739 47.0264C96.6763 46.952 96.8661 47.2206 96.8469 47.7714C96.7337 51.2261 96.5858 54.6825 96.5509 58.1388C96.5109 62.097 96.3525 66.0568 96.6049 70.0132C96.6432 70.6112 96.8748 70.8106 97.5224 70.8038C101.093 70.7683 104.66 70.6822 108.22 70.3967C108.83 70.3477 109.43 70.2058 110.036 70.1146C110.523 70.0436 110.748 70.2075 110.731 70.7058ZM53.4983 53.0691C54.0206 53.5219 54.5428 53.9898 55.039 54.478C55.4707 54.9054 55.7789 54.8159 56.0835 54.3513C56.5605 53.6232 57.0776 52.9171 57.5389 52.1789C58.2005 51.118 58.1657 50.9017 57.2795 49.9827C54.1459 46.7307 50.1418 45.952 45.8035 46.5213C41.3415 47.1058 38.2009 49.6263 36.2494 53.434C35.0315 55.7667 34.407 58.3485 34.4284 60.9634C34.4049 63.581 35.0288 66.166 36.2476 68.5012C38.1992 72.309 41.3398 74.8295 45.8017 75.414C50.1383 75.9766 54.1424 75.1978 57.2761 71.9458C58.1622 71.0285 58.197 70.8123 57.5354 69.7497C57.0741 69.0114 56.5571 68.3053 56.0801 67.5772C55.7771 67.1126 55.469 67.0231 55.0355 67.4505C54.5411 67.9387 54.024 68.4066 53.4948 68.8594C49.1234 72.5759 42.6559 71.1282 40.5894 65.8811C39.3333 62.7159 39.3333 59.2109 40.5894 56.0458C42.6524 50.8004 49.1269 49.3458 53.4983 53.0691ZM131.143 53.0691C131.665 53.5219 132.187 53.9898 132.684 54.478C133.115 54.9054 133.423 54.8159 133.728 54.3513C134.205 53.6232 134.722 52.9171 135.183 52.1789C135.847 51.118 135.81 50.9017 134.924 49.9827C131.79 46.7307 127.786 45.952 123.448 46.5213C118.986 47.1058 115.845 49.6263 113.894 53.434C112.676 55.7667 112.052 58.3485 112.073 60.9634C112.05 63.5812 112.674 66.1661 113.894 68.5012C115.845 72.309 118.986 74.8295 123.448 75.414C127.783 75.9766 131.787 75.1978 134.921 71.9458C135.807 71.0285 135.843 70.8123 135.18 69.7497C134.719 69.0114 134.202 68.3053 133.725 67.5772C133.422 67.1126 133.114 67.0231 132.68 67.4505C132.187 67.9387 131.669 68.4066 131.139 68.8594C126.768 72.5759 120.3 71.1282 118.234 65.8811C116.98 62.7155 116.98 59.2114 118.234 56.0458C120.306 50.8004 126.773 49.3458 131.145 53.0691H131.143ZM152.183 62.0446C151.677 61.3553 151.437 61.0884 151.433 60.8435C151.43 60.5985 151.677 60.3367 152.183 59.644C154.335 56.713 156.562 53.8327 158.776 50.9439C159.132 50.5203 159.31 49.9824 159.276 49.4371C159.239 48.755 159.239 48.0716 159.276 47.3896C159.297 46.9487 159.14 46.7628 158.677 46.7763C157.613 46.8101 156.55 46.8253 155.486 46.8456C154.99 46.8541 154.835 47.2646 154.615 47.5619C153.52 49.0941 152.453 50.6466 151.379 52.1941C150.5 53.4594 149.626 54.7281 148.745 55.99C148.545 56.2789 148.411 56.4242 148.275 56.4225C148.139 56.4208 148.005 56.2789 147.803 55.99C146.922 54.7264 146.05 53.456 145.171 52.1941C144.095 50.6466 143.028 49.0941 141.933 47.5619C141.721 47.2646 141.566 46.8541 141.062 46.8456C139.999 46.8253 138.933 46.8101 137.87 46.7763C137.408 46.7628 137.25 46.9453 137.271 47.3896C137.307 48.0716 137.307 48.755 137.271 49.4371C137.237 49.9826 137.416 50.5205 137.772 50.9439C139.985 53.8327 142.211 56.713 144.363 59.644C144.87 60.3333 145.11 60.6002 145.114 60.8435C145.117 61.0867 144.87 61.3503 144.363 62.0446C142.211 64.9756 139.985 67.8559 137.772 70.7447C137.416 71.168 137.237 71.706 137.271 72.2516C137.307 72.9336 137.307 73.617 137.271 74.2991C137.25 74.7383 137.408 74.9258 137.87 74.9123C138.933 74.8785 139.999 74.8616 141.062 74.843C141.557 74.8346 141.712 74.4241 141.933 74.1267C143.028 72.5928 144.095 71.042 145.171 69.4946C146.05 68.2293 146.922 66.9606 147.803 65.6986C148.005 65.4098 148.138 65.2628 148.275 65.2662C148.413 65.2695 148.545 65.4098 148.745 65.6986C149.626 66.9606 150.5 68.2326 151.379 69.4946C152.453 71.042 153.52 72.5928 154.615 74.1267C154.828 74.4241 154.983 74.8346 155.486 74.843C156.55 74.8616 157.613 74.8785 158.677 74.9123C159.14 74.9258 159.297 74.7434 159.276 74.2991C159.239 73.617 159.239 72.9336 159.276 72.2516C159.311 71.7062 159.132 71.1681 158.776 70.7447C156.564 67.8559 154.337 64.9756 152.185 62.0446H152.183ZM87.8377 60.9651C87.8377 69.0351 81.5252 75.5779 73.7363 75.5779C65.9475 75.5779 59.635 69.0351 59.635 60.9651C59.635 52.8951 65.9475 46.3523 73.7363 46.3523C81.5252 46.3523 87.8394 52.8951 87.8394 60.9651H87.8377ZM82.8517 60.9651C82.8517 55.4663 78.7728 51.0081 73.7398 51.0081C68.7069 51.0081 64.6279 55.4663 64.6279 60.9651C64.6279 66.4639 68.7086 70.9221 73.7398 70.9221C78.771 70.9221 82.8535 66.4639 82.8535 60.9651H82.8517Z" fill="#1E141D"/>
                    <path d="M23.8507 38.9378L32.7554 42.4753C32.0695 42.7034 31.596 42.8942 31.1033 43.0159C30.6733 43.1206 30.581 43.7474 30.581 43.7474C30.581 43.7474 30.6768 47.2037 30.7464 48.9319C30.7664 49.3639 30.6378 49.79 30.3808 50.1432C25.696 56.9749 14.643 73.0574 13.8544 74.3007C13.4052 74.9849 12.728 75.2586 11.9881 75.4275C11.3144 75.5728 10.6772 75.3819 10.3517 74.7518C9.91643 73.9071 9.68837 73.0625 10.1636 72.0894C13.7691 64.756 24.9979 42.1965 24.9979 42.1965C24.9979 42.1965 25.1511 41.6695 24.977 41.3874C24.6288 40.8197 24.3085 40.2369 23.9934 39.6524C23.8907 39.4581 23.6975 39.2757 23.8507 38.9378ZM19.434 30.3222C21.0234 31.1297 24.1797 32.7785 24.1797 32.7785C24.1797 32.7785 24.702 33.1738 24.5731 33.5843C24.4356 34.0556 24.3712 34.5455 24.2249 35.2331L31.8588 29.5755C31.6203 29.2782 31.3644 29.3508 31.1433 29.3424C30.4591 29.3136 29.7732 29.2883 29.089 29.2951C28.7496 29.2951 28.3509 28.9065 28.3509 28.9065C28.3509 28.9065 13.6838 8.27124 8.89103 1.60342C8.26082 0.718203 7.37992 0.481696 6.40153 0.42088C5.67557 0.376957 5.1829 0.814496 4.97921 1.448C4.75115 2.14401 4.66411 2.8417 5.068 3.55798C5.78699 4.83512 14.7248 22.0934 18.527 29.4167C18.7186 29.807 19.0373 30.1252 19.434 30.3222ZM75.526 33.0522C75.0142 32.5149 74.431 32.0943 73.5849 32.0723C72.0756 32.0335 52.0847 30.856 43.5978 30.3661C43.1509 30.3284 42.7036 30.4347 42.3252 30.6685C40.8054 31.5892 37.7448 33.3968 37.7448 33.3968C37.7448 33.3968 37.132 33.6282 36.8222 33.3224C36.474 32.9728 36.0596 32.6721 35.5095 32.2142C35.9517 35.4071 36.366 38.404 36.7821 41.4093C37.1669 41.3586 37.2313 41.1086 37.3497 40.9295C37.717 40.3721 38.0808 39.8129 38.4186 39.2402C38.5927 38.9547 39.1358 38.8196 39.1358 38.8196C39.1358 38.8196 65.0405 36.9022 73.4317 36.2416C74.5389 36.1555 75.19 35.5406 75.7332 34.7533C76.1423 34.1756 75.9943 33.5488 75.526 33.0589V33.0522ZM30.8839 34.0489C30.3871 34.0535 29.9028 34.2008 29.4921 34.472C29.0813 34.7432 28.7624 35.1264 28.5756 35.5731C28.3888 36.0199 28.3425 36.5103 28.4423 36.9825C28.5422 37.4548 28.7838 37.8879 29.1369 38.2271C29.4899 38.5664 29.9384 38.7967 30.4261 38.8891C30.9137 38.9814 31.4186 38.9317 31.8772 38.7461C32.3358 38.5606 32.7275 38.2475 33.003 37.8463C33.2786 37.4451 33.4256 36.9738 33.4257 36.4916C33.4245 36.1692 33.3578 35.8501 33.2294 35.5527C33.1009 35.2553 32.9133 34.9854 32.6772 34.7584C32.4411 34.5315 32.1611 34.352 31.8534 34.2303C31.5457 34.1085 31.2162 34.0469 30.8839 34.0489Z" fill="#4DBB81"/>
                    <path d="M9.26551 49.6414C11.2935 48.5124 13.4705 47.6565 15.7365 47.0973C16.2831 46.9588 16.2848 47.2797 16.358 47.5686C17.1814 50.8544 15.3778 53.8597 12.0057 54.8851C10.0193 55.4899 7.94416 55.7298 5.94733 56.2822C3.85824 56.8617 1.76915 57.4175 0.000391016 58.872C-0.0117953 57.6371 0.263268 56.5069 0.489586 55.3598C1.13198 52.1501 2.11385 49.0417 4.25169 46.4063C5.97519 44.2896 8.18092 43.0277 11.0813 43.1797C12.3817 43.2523 13.4402 43.7811 14.4221 44.5683C14.9043 44.9535 14.8329 45.2356 14.248 45.4519C13.4046 45.7841 12.5857 46.1718 11.7968 46.6124C8.48906 48.3525 4.2778 51.6247 2.39588 55.4207C4.29346 53.0946 6.62358 51.1343 9.26551 49.6414Z" fill="#65AB56"/>
                    <path d="M45.9323 15.4864C48.5282 15.4595 51.0425 16.3664 52.9899 18.0323C54.501 19.3026 55.6013 20.8889 56.4213 22.6492C56.7694 23.3942 57.1176 24.1409 57.243 24.9636C57.3317 25.5414 57.2047 25.9147 56.5605 26.0972C55.1817 26.4891 53.8116 26.3658 52.4224 26.1681C49.3949 25.7373 47.0534 24.1713 44.9609 22.139C44.2549 21.4337 43.4774 20.7993 42.6402 20.2453C42.2083 19.9611 41.7183 19.7707 41.2037 19.687C40.689 19.6034 40.1618 19.6284 39.6581 19.7605C35.8559 20.649 32.0607 21.5174 28.2638 22.4262C27.9435 22.5039 27.6179 22.5631 27.2959 22.6273C26.0494 22.8807 26.0581 22.9313 25.3617 21.9515C25.0483 21.5106 25.118 21.2251 25.6228 20.9785C27.3536 20.1413 29.1283 19.3924 30.9396 18.735C33.2478 17.867 35.6075 17.1336 38.0059 16.5389C40.4832 15.9476 42.9832 15.4999 45.9323 15.4864ZM46.9438 17.6032C46.8062 17.6032 46.6461 17.588 46.5677 17.7299C46.4598 17.9208 46.6269 18.0272 46.7418 18.1286C47.4902 18.8206 48.1791 19.5709 48.8013 20.372C48.9754 20.5848 49.1495 20.8011 49.4785 20.818C51.0331 20.894 52.5878 20.9869 54.1424 21.0511C54.5533 21.068 54.7361 20.8822 54.4697 20.5021C53.7861 19.5455 52.9471 18.7028 51.9854 18.0069C51.7711 17.8632 51.5196 17.7807 51.2595 17.7687C50.2724 17.6657 47.4155 17.5998 46.9438 17.6032ZM54.7239 23.7338C54.7761 24.2545 55.0195 24.7396 55.4098 25.1005C55.5124 25.1937 55.6397 25.2573 55.7775 25.2841C55.9152 25.311 56.058 25.3 56.1897 25.2525C56.5187 25.119 56.5953 24.8031 56.5379 24.5024C56.46 24.0283 56.2297 23.5901 55.8798 23.2506C55.6761 23.0547 55.422 22.9009 55.1225 23.0074C54.7865 23.1239 54.696 23.4145 54.7239 23.7338ZM50.1122 23.477C50.1032 23.7475 50.1568 24.0164 50.2692 24.2641C50.3816 24.5117 50.5499 24.7317 50.7616 24.9079C50.9861 25.092 51.2351 25.2457 51.5345 25.1123C51.834 24.9788 51.9019 24.6883 51.8827 24.418C51.8686 24.1555 51.8006 23.8984 51.6829 23.6617C51.5651 23.425 51.3998 23.2134 51.1968 23.0395C51.1002 22.9367 50.9734 22.8653 50.8335 22.8351C50.6936 22.8048 50.5475 22.8172 50.4151 22.8705C50.1244 22.9989 50.1105 23.33 50.1122 23.4753V23.477ZM53.1396 27.1125C50.8538 26.8016 48.7351 26.158 46.8602 24.8251C45.5806 23.9145 44.5117 22.7877 43.3227 21.7843C42.3321 20.9497 41.2962 20.2639 39.8844 20.5359C39.4683 20.6136 39.0592 20.7183 38.6448 20.8062C34.7313 21.6356 30.856 22.4955 26.9425 23.325C26.5943 23.401 26.4881 23.6206 26.7301 23.9669C27.3899 24.9096 27.9905 25.7188 28.5859 26.6969C28.9515 27.2983 29.4563 27.4351 30.1039 27.4723C31.6359 27.5568 33.1645 27.6733 34.6947 27.7713C38.1556 27.9909 41.6131 28.2781 45.0758 28.4065C48.2651 28.5315 51.5641 28.6193 54.6508 28.5399C55.7667 28.5112 56.2263 28.2224 56.6545 27.0635C55.4446 27.1023 54.3165 27.2679 53.1396 27.1125Z" fill="#85C88B"/>
                    <path d="M6.77446 26.3101C8.49274 28.1075 10.6619 28.9623 12.8189 29.8273C14.2569 30.4033 15.7454 30.8561 17.1172 31.5892C19.5127 32.8681 20.5416 35.8582 19.4256 38.2621C19.1854 38.7808 18.8929 38.6287 18.5413 38.4834C14.9811 37.0019 12.2427 35.0186 9.99166 31.9862C9.74968 31.6602 9.0568 30.606 8.76084 30.2074C9.00446 30.9051 9.30484 31.583 9.65915 32.2346C11.5515 35.7822 13.7538 37.7807 17.3191 39.8231C17.9354 40.1778 17.7579 40.3299 17.3191 40.634C15.5208 41.83 12.8903 41.6476 10.9022 40.1677C9.05331 38.8095 8.12715 36.9107 7.51609 34.8547C6.69786 32.0944 6.60386 29.2647 6.77446 26.3101Z" fill="#65AB56"/>
                    </svg>