<svg width="188" height="92" viewBox="0 0 188 92" fill="none" xmlns="http://www.w3.org/2000/svg">
<path d="M68.4695 85.6574C68.4068 85.9736 68.2446 86.2615 68.0065 86.4794C64.856 90.1202 60.9509 91.9424 56.2911 91.9462C51.4394 91.9462 47.5587 90.1802 44.6491 86.6483C41.9316 83.3529 40.5728 79.2392 40.5728 74.3074C40.5728 69.3755 41.956 65.2468 44.7225 61.9213C47.6622 58.3406 51.5504 56.5503 56.3871 56.5503C61.2803 56.5503 65.0725 58.2036 67.7637 61.5103C67.9785 61.7446 68.1147 62.0398 68.1533 62.3548C68.1533 62.6326 67.7242 63.4433 66.866 64.787C66.0078 66.1307 65.4903 66.8044 65.3134 66.8082C65.1045 66.8082 64.6133 66.4084 63.8341 65.6202C63.0375 64.7779 62.1318 64.0452 61.141 63.4414C59.7367 62.6493 58.1473 62.2414 56.5339 62.2591C53.3345 62.2591 50.8446 63.4771 49.0643 65.913C47.4759 68.0862 46.6836 70.8261 46.6873 74.1328C46.6911 77.4395 47.474 80.2057 49.0361 82.4315C49.8586 83.6342 50.9739 84.6091 52.2773 85.2649C53.5808 85.9207 55.0298 86.2359 56.4887 86.181C58.0919 86.1749 59.6681 85.7685 61.0733 84.9987C62.1526 84.3984 63.1474 83.6582 64.0317 82.7974C64.4466 82.3509 64.9107 81.9524 65.415 81.6095C65.5129 81.6095 66.0455 82.2513 67.0128 83.5349C67.5732 84.1884 68.0615 84.9 68.4695 85.6574Z" fill="white"/>
<path d="M103.209 74.2623C103.306 78.8254 101.657 83.2541 98.5966 86.6483C97.1005 88.3326 95.263 89.6811 93.2055 90.6046C91.148 91.5281 88.9174 92.0057 86.661 92.0057C84.4047 92.0057 82.174 91.5281 80.1165 90.6046C78.059 89.6811 76.2215 88.3326 74.7254 86.6483C71.7384 83.2065 70.0986 78.8046 70.1079 74.2528C70.1173 69.7011 71.7751 65.3059 74.7763 61.8763C76.2601 60.1848 78.0894 58.8292 80.1416 57.9004C82.1938 56.9716 84.4214 56.4911 86.6751 56.4911C88.9288 56.4911 91.1564 56.9716 93.2087 57.9004C95.2609 58.8292 97.0902 60.1848 98.574 61.8763C101.644 65.2662 103.301 69.6958 103.209 74.2623ZM97.3601 74.1891C97.4107 71.1728 96.3592 68.2412 94.4016 65.9411C93.4799 64.7634 92.2975 63.8142 90.9468 63.1676C89.5962 62.5211 88.1139 62.1947 86.6159 62.2141C85.1243 62.1992 83.65 62.5325 82.3108 63.1875C80.9716 63.8425 79.8047 64.801 78.9035 65.9862C77.018 68.3295 75.9905 71.2439 75.9905 74.2482C75.9905 77.2525 77.018 80.167 78.9035 82.5103C79.8038 83.6964 80.9705 84.6556 82.3099 85.3107C83.6493 85.9658 85.1241 86.2986 86.6159 86.2824C88.1219 86.3025 89.6119 85.9721 90.9674 85.3172C92.323 84.6624 93.5066 83.7013 94.4242 82.5103C96.3746 80.1789 97.4169 77.2246 97.3601 74.1891Z" fill="white"/>
<path d="M130.061 85.9952C130.115 87.608 129.994 89.2219 129.7 90.8088C129.672 91.0108 129.569 91.1948 129.411 91.3242C129.253 91.4535 129.051 91.5188 128.847 91.507C127.65 91.507 125.855 91.4394 123.461 91.3043C121.067 91.1692 119.272 91.096 118.081 91.096C116.889 91.096 115.258 91.1241 112.999 91.1692C110.741 91.2142 109.047 91.2424 107.918 91.2424C107.837 91.2491 107.755 91.2382 107.678 91.2104C107.601 91.1825 107.532 91.1385 107.474 91.0812C107.416 91.024 107.371 90.9549 107.342 90.8787C107.314 90.8025 107.302 90.7211 107.308 90.6399C107.308 88.8796 107.368 86.226 107.489 82.6791C107.609 79.1322 107.671 76.4711 107.675 74.6958C107.675 72.8191 107.588 70.0172 107.415 66.2902C107.242 62.5631 107.157 59.7612 107.161 57.8845C107.161 57.5299 107.365 57.3553 107.771 57.3553C108.059 57.3553 108.505 57.3553 109.103 57.4229C109.702 57.4904 110.154 57.4961 110.464 57.4961C110.775 57.4961 111.204 57.4961 111.819 57.4229C112.435 57.3497 112.886 57.3553 113.18 57.3553C113.569 57.3553 113.744 57.5073 113.744 57.8114C113.744 59.5229 113.68 62.0958 113.552 65.5301C113.425 68.9644 113.359 71.5448 113.355 73.2714V77.0941C113.355 78.7831 113.355 80.078 113.355 80.9113C113.355 84.492 113.5 86.2823 113.79 86.2823C119.759 86.2823 124.263 86.1378 127.3 85.8488L128.43 85.6799C128.801 85.5972 129.179 85.5482 129.559 85.5335C129.875 85.5335 130.061 85.6855 130.061 85.9952Z" fill="white"/>
<path d="M159.63 85.6574C159.567 85.9725 159.407 86.26 159.172 86.4794C156.018 90.1202 152.113 91.9424 147.457 91.9462C142.601 91.9462 138.719 90.1802 135.809 86.6483C133.092 83.3529 131.733 79.2392 131.733 74.3074C131.733 69.3755 133.116 65.2468 135.883 61.9213C138.822 58.3406 142.712 56.5503 147.553 56.5503C152.446 56.5503 156.238 58.2036 158.93 61.5103C159.144 61.7446 159.28 62.0398 159.319 62.3548C159.319 62.6326 158.89 63.4433 158.032 64.787C157.174 66.1307 156.656 66.8044 156.479 66.8082C156.27 66.8082 155.773 66.4084 155 65.6202C154.203 64.7779 153.298 64.0452 152.307 63.4414C150.902 62.6498 149.313 62.2419 147.7 62.2591C144.493 62.2591 142.001 63.4771 140.224 65.913C138.644 68.0862 137.851 70.8261 137.847 74.1328C137.844 77.4395 138.629 80.2057 140.202 82.4315C141.023 83.6341 142.137 84.6091 143.44 85.265C144.742 85.9208 146.191 86.236 147.649 86.181C149.252 86.1764 150.829 85.7698 152.233 84.9987C153.315 84.4013 154.31 83.6608 155.192 82.7974C155.608 82.3525 156.072 81.9541 156.575 81.6095C156.669 81.6095 157.204 82.2513 158.179 83.5349C158.739 84.1875 159.225 84.8992 159.63 85.6574Z" fill="white"/>
<path d="M187.018 90.9553C187.018 91.1467 186.843 91.2424 186.487 91.2424H182.58C182.476 91.2599 182.369 91.2599 182.264 91.2424C182.019 91.1636 180.625 89.1555 178.08 85.2183C175.536 81.281 174.219 79.3068 174.128 79.2955C173.835 79.5057 172.402 81.57 169.832 85.4885C167.359 89.3132 166 91.2236 165.755 91.2199H161.73C161.353 91.2199 161.165 91.0904 161.165 90.8314V87.3746C161.165 87.0668 162.686 84.9011 165.727 80.8775C168.768 76.854 170.289 74.6808 170.289 74.358C170.289 74.0014 168.783 71.7926 165.772 67.7315C162.761 63.6704 161.255 61.5178 161.255 61.2738V57.5468C161.255 57.3216 161.476 57.209 161.91 57.209C162.345 57.209 163.039 57.209 163.948 57.254C164.857 57.2991 165.535 57.3047 165.987 57.3047C166.066 57.3047 166.365 57.68 166.884 58.4307C168.39 60.8178 170.686 64.3835 173.772 69.1277C173.888 69.2704 174.028 69.3923 174.185 69.488C174.41 69.3754 175.809 67.3111 178.38 63.295C180.92 59.324 182.304 57.3404 182.529 57.3441H186.335C186.753 57.3441 186.967 57.4567 186.967 57.6819V61.3639C186.967 61.7618 185.461 63.9631 182.45 67.9679C179.439 71.9727 177.934 74.0765 177.934 74.2792C177.934 74.5382 179.45 76.7282 182.484 80.8494C185.518 84.9706 187.024 87.1757 187.001 87.4647L187.018 90.9553Z" fill="white"/>
<path d="M28.75 40.4991L22.037 36.5919L6.67997 3.03704C6.67997 3.03704 6.45413 -2.02997 11.1403 0.925788L31.8158 33.0168L33.5096 36.119L37.665 36.3892L28.0669 43.1452L28.75 40.4991Z" fill="white"/>
<path d="M43.78 40.9101L50.4141 36.8846L87.3217 39.3618C87.3217 39.3618 91.9062 41.5801 87.062 44.2768L48.9405 47.165H45.3948L43.1816 50.6838L41.7588 39.0578L43.78 40.9101Z" fill="white"/>
<path d="M35.9773 52.6768L36.2313 60.4237L15.9058 91.2424C15.9058 91.2424 11.7165 94.1306 11.7448 88.5963L27.9826 54.0843L29.7102 50.9991L27.7285 47.3452L38.5913 51.8492L35.9773 52.6768Z" fill="white"/>
<path d="M39.1898 44.8286C39.1898 45.419 39.0142 45.9962 38.6851 46.487C38.356 46.9778 37.8884 47.3603 37.3413 47.5859C36.7941 47.8116 36.1922 47.8704 35.6116 47.7548C35.031 47.6392 34.4978 47.3544 34.0795 46.9366C33.6613 46.5187 33.3767 45.9865 33.2619 45.4073C33.1471 44.8281 33.2071 44.228 33.4345 43.6828C33.6618 43.1377 34.0463 42.6721 34.5391 42.3449C35.0319 42.0177 35.611 41.8436 36.2031 41.8447C36.5958 41.8447 36.9846 41.922 37.3474 42.072C37.7101 42.222 38.0396 42.4419 38.317 42.719C38.5944 42.9962 38.8143 43.3252 38.9641 43.6872C39.1138 44.0492 39.1905 44.437 39.1898 44.8286Z" fill="white"/>
<path d="M0.0180664 72.0609L2.57004 68.2663C2.64344 68.1312 2.7733 67.9116 2.94268 67.6132C3.01607 67.4893 3.08947 67.343 3.18545 67.1966L3.49034 66.7124C3.60325 66.5435 3.71617 66.3577 3.84038 66.1494C3.9646 65.9411 4.11139 65.7609 4.25254 65.5864C4.39369 65.4119 4.54613 65.1641 4.70986 64.9446C4.8736 64.725 5.04862 64.5054 5.22929 64.2802L5.5003 63.9312L5.79389 63.5934C5.99714 63.3625 6.19475 63.1204 6.40365 62.884C6.84404 62.428 7.28442 61.9381 7.76998 61.4821C8.25553 61.0261 8.76931 60.5701 9.27745 60.1197C9.78559 59.6693 10.3389 59.2526 10.8922 58.8698C11.4455 58.4869 12.0214 58.1154 12.5352 57.7438L13.3538 57.2596L13.7547 57.0288L14.1499 56.8148L14.9178 56.4095C15.1662 56.2856 15.4146 56.1786 15.6517 56.066C15.8889 55.9534 16.1091 55.8465 16.3293 55.7508L16.956 55.4636L17.5206 55.2328L17.7972 55.1315L17.7012 55.0132L17.5319 54.8274C16.3708 53.5956 14.8196 52.8002 13.1393 52.5754C1.55377 52.3559 0.108402 70.7266 0.0180664 72.0609Z" fill="white"/>
<path d="M15.7476 58.2899L14.9967 58.5827L14.6015 58.7291L14.2063 58.9036C13.9409 59.0218 13.6417 59.1344 13.3933 59.2639C12.8287 59.5342 12.2641 59.8269 11.6995 60.1197C11.1349 60.4125 10.5703 60.7728 10.0339 61.1106C9.49754 61.4484 8.94424 61.8368 8.44175 62.2366C7.93926 62.6363 7.43676 63.036 6.9625 63.4245C6.73102 63.6272 6.51083 63.8355 6.29063 64.0382L5.96317 64.3366L5.65829 64.6406L5.09369 65.2036C4.90737 65.395 4.73799 65.5921 4.56861 65.7666C4.39924 65.9411 4.24115 66.1269 4.09435 66.3014L3.6822 66.7969L3.32086 67.236C3.21358 67.3711 3.12325 67.5006 3.03291 67.6189L2.46832 68.3564L2.53607 68.2382C1.72869 69.443 0.655961 71.0532 0.00102901 72.0103C-0.000343002 72.0347 -0.000343002 72.0591 0.00102901 72.0835C0.00102901 72.0835 0.926966 69.6963 11.101 67.7371C12.3742 67.4957 13.6259 67.1531 14.8443 66.7124C15.5123 66.4661 16.1401 66.1227 16.7074 65.6934C17.7504 64.8934 18.5586 63.8285 19.0473 62.6102C19.536 61.392 19.6873 60.0651 19.4853 58.7685C19.4118 58.2685 19.285 57.7778 19.107 57.3047L18.6722 57.4004C18.5311 57.4342 18.3674 57.468 18.2036 57.513L17.6898 57.6537L17.1252 57.817L16.4703 58.0253L15.7533 58.2618" fill="white"/>
<path d="M8.04067 31.9077L9.73446 35.556C9.77963 35.6855 9.85867 35.8938 9.96594 36.1753L10.1184 36.5694L10.3216 37.031L10.5475 37.5546C10.6322 37.7404 10.7281 37.9262 10.8298 38.1176L11.1347 38.7369L11.5016 39.4069C11.5638 39.5195 11.6259 39.6321 11.6936 39.7447L11.8969 40.0825C12.0437 40.3077 12.1848 40.5442 12.3316 40.7806C12.6478 41.2366 12.964 41.7265 13.3309 42.1881C13.6979 42.6498 14.0706 43.1114 14.4601 43.5787C14.8497 44.046 15.2619 44.4739 15.6853 44.868C16.1088 45.2621 16.5435 45.6787 16.9613 46.0616C17.1758 46.2474 17.396 46.4219 17.6049 46.6246L17.9211 46.8835L18.2373 47.12L18.847 47.576L19.4116 47.9758L19.9762 48.3417L20.4957 48.657L20.953 48.9329L21.1788 49.0567L21.0772 49.1468L20.9078 49.2876C19.7267 50.1919 18.2692 50.6631 16.7806 50.6219C6.6687 49.2538 7.92211 33.0562 8.04067 31.9077Z" fill="white"/>
<path d="M19.8296 45.9996L19.2142 45.645L18.8923 45.4648L18.5705 45.2565C18.356 45.1214 18.1301 44.9806 17.9099 44.8342C17.4752 44.5246 17.0179 44.2149 16.5775 43.8659C16.1371 43.5168 15.7024 43.1452 15.262 42.7849C14.8216 42.4246 14.4207 42.0023 14.0312 41.5857C13.6416 41.1691 13.2746 40.7581 12.902 40.3527C12.727 40.1444 12.5632 39.9361 12.3995 39.7278L12.168 39.4069L11.9478 39.0972L11.5187 38.5342C11.3832 38.3428 11.2646 38.1514 11.1404 37.9712C11.0162 37.7911 10.9033 37.6109 10.8017 37.442L10.5137 36.9522L10.2597 36.5243L10.0621 36.1528L9.68378 35.4377L9.72895 35.5447L8.03516 31.9246C8.0364 31.9021 8.0364 31.8796 8.03516 31.8571C8.03516 31.8571 8.51506 34.0584 17.0687 37.1493C18.1412 37.5339 19.1814 38.0026 20.1796 38.5511C20.7249 38.8555 21.2247 39.2345 21.6645 39.6771C22.4662 40.5114 23.0286 41.5451 23.2927 42.6701C23.5569 43.7952 23.5133 44.9703 23.1663 46.0728C23.0318 46.4962 22.852 46.9039 22.63 47.2889L22.263 47.1425C22.1444 47.0975 22.0089 47.0468 21.8734 46.9849L21.4726 46.7991L20.987 46.5795L20.4224 46.3037C20.2361 46.208 20.0328 46.1122 19.8578 45.9996" fill="white"/>
<path d="M34.2608 33.4447C40.2794 34.0077 53.9708 34.7115 54.1628 34.7227L60.6613 34.7959L65.0482 34.8466C65.2116 34.8479 65.3707 34.7943 65.4999 34.6946C66.1621 34.1932 66.6754 33.5218 66.9848 32.7522C65.9166 33.1174 64.7857 33.2648 63.6593 33.1857C63.1432 33.1621 62.6287 33.1114 62.118 33.0337C61.0109 32.8606 59.9196 32.5989 58.8546 32.2511C56.0316 31.3391 54.0216 29.4361 52.277 27.7865C50.4478 26.0412 49.0024 24.6563 47.1957 25.0335C44.0904 25.6865 33.3292 28.0624 31.0708 28.5916" fill="white"/>
<path d="M30.7208 28.0793C33.0921 27.5163 43.9041 24.7013 46.9868 24.082C49.2452 23.5978 50.939 25.208 52.9264 27.0828C54.6202 28.6761 56.4833 30.4608 59.1369 31.3278C60.1391 31.6613 61.1661 31.9155 62.2083 32.0878H62.2422C62.7248 32.1618 63.2111 32.2088 63.6989 32.2286C65.9177 32.3187 66.9284 31.7275 66.9396 31.7219L67.3123 31.5023C67.384 30.8037 67.2991 30.098 67.0639 29.4361C66.3314 27.311 65.2328 25.3295 63.8174 23.5809C62.682 22.1764 61.2546 21.0344 59.6336 20.2334C58.0126 19.4325 56.2366 18.9918 54.4282 18.9418C45.4793 18.5758 32.4541 24.3184 29.4053 26.0468M60.3621 30.7029C59.837 30.7029 59.2329 30.0273 59.0127 29.2447C58.7925 28.4621 59.0409 27.8372 59.5773 27.8597C60.1137 27.8822 60.7065 28.5353 60.9323 29.3179C61.1582 30.1005 60.8985 30.7254 60.3677 30.7029M64.0433 25.6978L58.2166 25.4613C58.0819 25.4559 57.9504 25.419 57.8327 25.3534C57.715 25.2879 57.6144 25.1956 57.5391 25.0841C56.7682 23.9419 55.8408 22.9129 54.7839 22.027C54.722 21.9914 54.6747 21.9351 54.6501 21.8682C54.6256 21.8013 54.6254 21.7279 54.6496 21.6608C54.6738 21.5938 54.7209 21.5373 54.7826 21.5014C54.8443 21.4654 54.9167 21.4522 54.9871 21.464L60.2548 21.678C60.6071 21.6917 60.9456 21.818 61.2203 22.0383C62.394 22.9732 63.4149 24.0843 64.2465 25.3318C64.2715 25.3688 64.2857 25.4119 64.2877 25.4564C64.2897 25.5009 64.2793 25.5451 64.2577 25.5841C64.2361 25.6231 64.2041 25.6554 64.1653 25.6775C64.1265 25.6995 64.0823 25.7104 64.0376 25.709M65.8048 30.9393C65.2797 30.9393 64.6756 30.2637 64.4554 29.4755C64.2352 28.6873 64.4837 28.068 65.02 28.0905C65.5564 28.1131 66.1492 28.7661 66.3751 29.5543C66.6009 30.3425 66.3412 30.9562 65.8105 30.9393" fill="white"/>
</svg>
