<svg width="226" height="109" viewBox="0 0 226 109" fill="none" xmlns="http://www.w3.org/2000/svg">
<path fill-rule="evenodd" clip-rule="evenodd" d="M189.315 108.969C211.862 95.7144 226 76.6665 226 55.5C226 33.3485 210.516 13.5173 186.113 0.21875H39.8868C15.4841 13.5173 0 33.3485 0 55.5C0 76.6665 14.1376 95.7144 36.6848 108.969H189.315Z" fill="white"/>
<path d="M143.731 83.2881C143.696 84.3794 143.715 85.4724 143.557 86.557C143.424 87.4946 143.228 87.6804 142.237 87.6466C139.662 87.5605 137.089 87.4287 134.516 87.3459C131.417 87.2479 128.322 87.4743 125.223 87.4878C124.527 87.4878 124.309 87.2496 124.337 86.6144C124.373 85.7698 124.337 84.9251 124.337 84.0905H124.389C124.48 80.7946 124.607 77.5021 124.654 74.2028C124.716 69.9237 124.262 65.6599 124.232 61.3841C124.232 61.0463 124.252 60.6983 124.219 60.3604C124.163 59.8063 124.372 59.5343 124.974 59.6086C126.335 59.7784 127.713 59.7784 129.074 59.6086C129.676 59.5343 129.866 59.8029 129.847 60.3536C129.734 63.8083 129.586 67.2647 129.551 70.7211C129.511 74.6792 129.352 78.6391 129.605 82.5955C129.643 83.1935 129.875 83.3929 130.522 83.3861C134.093 83.3506 137.66 83.2645 141.22 82.979C141.83 82.93 142.43 82.7881 143.036 82.6968C143.523 82.6259 143.748 82.7898 143.731 83.2881ZM86.4983 65.6514C87.0206 66.1042 87.5428 66.5721 88.039 67.0603C88.4707 67.4877 88.7789 67.3982 89.0835 66.9336C89.5605 66.2055 90.0776 65.4994 90.5389 64.7611C91.2005 63.7002 91.1657 63.484 90.2795 62.565C87.1459 59.313 83.1418 58.5342 78.8035 59.1035C74.3415 59.688 71.2009 62.2085 69.2494 66.0163C68.0315 68.349 67.407 70.9308 67.4284 73.5457C67.4049 76.1633 68.0288 78.7482 69.2476 81.0835C71.1992 84.8913 74.3398 87.4118 78.8017 87.9963C83.1383 88.5589 87.1424 87.7801 90.2761 84.5281C91.1622 83.6108 91.197 83.3945 90.5354 82.3319C90.0741 81.5937 89.5571 80.8876 89.0801 80.1595C88.7771 79.6949 88.469 79.6054 88.0355 80.0328C87.5411 80.521 87.024 80.9889 86.4948 81.4417C82.1234 85.1582 75.6559 83.7104 73.5894 78.4634C72.3333 75.2982 72.3333 71.7932 73.5894 68.628C75.6524 63.3826 82.1269 61.9281 86.4983 65.6514ZM164.143 65.6514C164.665 66.1042 165.187 66.5721 165.683 67.0603C166.115 67.4877 166.423 67.3982 166.728 66.9336C167.205 66.2055 167.722 65.4994 168.183 64.7611C168.847 63.7002 168.81 63.484 167.924 62.565C164.79 59.313 160.786 58.5342 156.448 59.1035C151.986 59.688 148.845 62.2085 146.894 66.0163C145.676 68.349 145.052 70.9308 145.073 73.5457C145.05 76.1635 145.674 78.7484 146.894 81.0835C148.845 84.8913 151.986 87.4118 156.448 87.9963C160.783 88.5589 164.787 87.7801 167.921 84.5281C168.807 83.6108 168.843 83.3945 168.18 82.3319C167.719 81.5937 167.202 80.8876 166.725 80.1595C166.422 79.6949 166.114 79.6054 165.68 80.0328C165.187 80.521 164.669 80.9889 164.139 81.4417C159.768 85.1582 153.3 83.7104 151.234 78.4634C149.98 75.2977 149.98 71.7936 151.234 68.628C153.306 63.3826 159.773 61.9281 164.145 65.6514H164.143ZM185.183 74.6269C184.677 73.9376 184.437 73.6707 184.433 73.4258C184.43 73.1808 184.677 72.919 185.183 72.2263C187.335 69.2953 189.562 66.415 191.776 63.5262C192.132 63.1026 192.31 62.5647 192.276 62.0193C192.239 61.3373 192.239 60.6539 192.276 59.9719C192.297 59.5309 192.14 59.3451 191.677 59.3586C190.613 59.3924 189.55 59.4076 188.486 59.4279C187.99 59.4363 187.835 59.8468 187.615 60.1442C186.52 61.6764 185.453 63.2289 184.379 64.7763C183.5 66.0416 182.626 67.3103 181.745 68.5723C181.545 68.8612 181.411 69.0064 181.275 69.0048C181.139 69.0031 181.005 68.8612 180.803 68.5723C179.922 67.3087 179.05 66.0383 178.171 64.7763C177.095 63.2289 176.028 61.6764 174.933 60.1442C174.721 59.8468 174.566 59.4363 174.062 59.4279C172.999 59.4076 171.933 59.3924 170.87 59.3586C170.408 59.3451 170.25 59.5276 170.271 59.9719C170.307 60.6539 170.307 61.3373 170.271 62.0193C170.237 62.5649 170.416 63.1028 170.772 63.5262C172.985 66.415 175.211 69.2953 177.363 72.2263C177.87 72.9156 178.11 73.1825 178.114 73.4258C178.117 73.669 177.87 73.9326 177.363 74.6269C175.211 77.5579 172.985 80.4382 170.772 83.327C170.416 83.7502 170.237 84.2883 170.271 84.8339C170.307 85.5159 170.307 86.1993 170.271 86.8813C170.25 87.3206 170.408 87.5081 170.87 87.4946C171.933 87.4608 172.999 87.4439 174.062 87.4253C174.557 87.4169 174.712 87.0063 174.933 86.709C176.028 85.1751 177.095 83.6243 178.171 82.0769C179.05 80.8115 179.922 79.5428 180.803 78.2809C181.005 77.992 181.138 77.8451 181.275 77.8484C181.413 77.8518 181.545 77.992 181.745 78.2809C182.626 79.5428 183.5 80.8149 184.379 82.0769C185.453 83.6243 186.52 85.1751 187.615 86.709C187.828 87.0063 187.983 87.4169 188.486 87.4253C189.55 87.4439 190.613 87.4608 191.677 87.4946C192.14 87.5081 192.297 87.3256 192.276 86.8813C192.239 86.1993 192.239 85.5159 192.276 84.8339C192.311 84.2885 192.132 83.7504 191.776 83.327C189.564 80.4382 187.337 77.5579 185.185 74.6269H185.183ZM120.838 73.5474C120.838 81.6174 114.525 88.1602 106.736 88.1602C98.9475 88.1602 92.635 81.6174 92.635 73.5474C92.635 65.4774 98.9475 58.9346 106.736 58.9346C114.525 58.9346 120.839 65.4774 120.839 73.5474H120.838ZM115.852 73.5474C115.852 68.0486 111.773 63.5904 106.74 63.5904C101.707 63.5904 97.6279 68.0486 97.6279 73.5474C97.6279 79.0462 101.709 83.5043 106.74 83.5043C111.771 83.5043 115.853 79.0462 115.853 73.5474H115.852Z" fill="#1E141D"/>
<path d="M56.8507 51.52L65.7554 55.0574C65.0695 55.2855 64.596 55.4764 64.1033 55.598C63.6733 55.7028 63.581 56.3295 63.581 56.3295C63.581 56.3295 63.6768 59.7859 63.7464 61.5141C63.7664 61.946 63.6378 62.3722 63.3808 62.7253C58.696 69.557 47.643 85.6395 46.8544 86.8829C46.4052 87.5671 45.728 87.8408 44.9881 88.0097C44.3144 88.155 43.6772 87.9641 43.3517 87.334C42.9164 86.4893 42.6884 85.6446 43.1636 84.6716C46.7691 77.3381 57.9979 54.7787 57.9979 54.7787C57.9979 54.7787 58.1511 54.2516 57.977 53.9695C57.6288 53.4019 57.3085 52.8191 56.9934 52.2346C56.8907 52.0403 56.6975 51.8578 56.8507 51.52ZM52.434 42.9043C54.0234 43.7118 57.1797 45.3606 57.1797 45.3606C57.1797 45.3606 57.702 45.7559 57.5731 46.1665C57.4356 46.6378 57.3712 47.1277 57.2249 47.8152L64.8588 42.1576C64.6203 41.8603 64.3644 41.933 64.1433 41.9245C63.4591 41.8958 62.7732 41.8705 62.089 41.8772C61.7496 41.8772 61.3509 41.4887 61.3509 41.4887C61.3509 41.4887 46.6838 20.8534 41.891 14.1856C41.2608 13.3004 40.3799 13.0638 39.4015 13.003C38.6756 12.9591 38.1829 13.3966 37.9792 14.0302C37.7512 14.7262 37.6641 15.4239 38.068 16.1401C38.787 17.4173 47.7248 34.6756 51.527 41.9989C51.7186 42.3892 52.0373 42.7074 52.434 42.9043ZM108.526 45.6343C108.014 45.0971 107.431 44.6765 106.585 44.6545C105.076 44.6156 85.0847 43.4382 76.5978 42.9483C76.1509 42.9106 75.7036 43.0168 75.3252 43.2507C73.8054 44.1713 70.7448 45.9789 70.7448 45.9789C70.7448 45.9789 70.132 46.2104 69.8222 45.9046C69.474 45.5549 69.0596 45.2542 68.5095 44.7964C68.9517 47.9892 69.366 50.9861 69.7821 53.9915C70.1669 53.9408 70.2313 53.6908 70.3497 53.5117C70.717 52.9542 71.0808 52.395 71.4186 51.8224C71.5927 51.5369 72.1358 51.4017 72.1358 51.4017C72.1358 51.4017 98.0405 49.4843 106.432 48.8238C107.539 48.7376 108.19 48.1227 108.733 47.3355C109.142 46.7577 108.994 46.131 108.526 45.6411V45.6343ZM63.8839 46.631C63.3871 46.6357 62.9028 46.7829 62.4921 47.0541C62.0813 47.3254 61.7624 47.7085 61.5756 48.1553C61.3888 48.602 61.3425 49.0924 61.4423 49.5647C61.5422 50.037 61.7838 50.47 62.1369 50.8093C62.4899 51.1486 62.9384 51.3789 63.4261 51.4712C63.9137 51.5636 64.4186 51.5139 64.8772 51.3283C65.3358 51.1427 65.7275 50.8296 66.003 50.4285C66.2786 50.0273 66.4256 49.5559 66.4257 49.0738C66.4245 48.7513 66.3578 48.4322 66.2294 48.1348C66.1009 47.8374 65.9133 47.5675 65.6772 47.3406C65.4411 47.1137 65.1611 46.9342 64.8534 46.8124C64.5457 46.6907 64.2162 46.629 63.8839 46.631Z" fill="#4DBB81"/>
<path d="M42.2655 62.2236C44.2935 61.0946 46.4705 60.2387 48.7365 59.6794C49.2831 59.5409 49.2848 59.8619 49.358 60.1508C50.1814 63.4365 48.3778 66.4419 45.0057 67.4673C43.0193 68.0721 40.9442 68.312 38.9473 68.8644C36.8582 69.4438 34.7692 69.9996 33.0004 71.4541C32.9882 70.2192 33.2633 69.0891 33.4896 67.942C34.132 64.7323 35.1139 61.6239 37.2517 58.9885C38.9752 56.8718 41.1809 55.6098 44.0813 55.7619C45.3817 55.8345 46.4402 56.3633 47.4221 57.1505C47.9043 57.5357 47.8329 57.8178 47.248 58.034C46.4046 58.3662 45.5857 58.754 44.7968 59.1946C41.4891 60.9346 37.2778 64.2069 35.3959 68.0028C37.2935 65.6768 39.6236 63.7165 42.2655 62.2236Z" fill="#65AB56"/>
<path d="M78.9323 28.0685C81.5282 28.0415 84.0425 28.9484 85.9899 30.6143C87.501 31.8847 88.6013 33.471 89.4213 35.2313C89.7694 35.9763 90.1176 36.7229 90.243 37.5456C90.3318 38.1234 90.2047 38.4967 89.5605 38.6792C88.1817 39.0711 86.8116 38.9478 85.4224 38.7501C82.3949 38.3194 80.0534 36.7533 77.9609 34.7211C77.2549 34.0158 76.4774 33.3813 75.6402 32.8273C75.2083 32.5432 74.7183 32.3527 74.2037 32.2691C73.689 32.1854 73.1618 32.2104 72.6581 32.3425C68.8559 33.2311 65.0607 34.0994 61.2638 35.0083C60.9435 35.086 60.6179 35.1451 60.2959 35.2093C59.0494 35.4627 59.0581 35.5134 58.3617 34.5336C58.0483 34.0926 58.118 33.8071 58.6228 33.5605C60.3536 32.7233 62.1283 31.9745 63.9396 31.3171C66.2478 30.449 68.6075 29.7156 71.0059 29.1209C73.4832 28.5296 75.9832 28.082 78.9323 28.0685ZM79.9438 30.1852C79.8062 30.1852 79.6461 30.17 79.5677 30.3119C79.4598 30.5028 79.6269 30.6092 79.7418 30.7106C80.4902 31.4026 81.1791 32.1529 81.8013 32.954C81.9754 33.1669 82.1495 33.3831 82.4785 33.4C84.0331 33.476 85.5878 33.5689 87.1424 33.6331C87.5533 33.65 87.7361 33.4642 87.4697 33.0841C86.7861 32.1275 85.9471 31.2848 84.9854 30.5889C84.7711 30.4452 84.5196 30.3627 84.2595 30.3508C83.2724 30.2477 80.4155 30.1818 79.9438 30.1852ZM87.7239 36.3158C87.7761 36.8365 88.0195 37.3216 88.4098 37.6825C88.5124 37.7757 88.6397 37.8393 88.7775 37.8662C88.9152 37.893 89.058 37.8821 89.1897 37.8345C89.5187 37.7011 89.5953 37.3852 89.5379 37.0845C89.46 36.6103 89.2297 36.1722 88.8798 35.8327C88.6761 35.6367 88.422 35.483 88.1225 35.5894C87.7865 35.706 87.696 35.9965 87.7239 36.3158ZM83.1122 36.059C83.1032 36.3295 83.1568 36.5985 83.2692 36.8461C83.3816 37.0938 83.5499 37.3138 83.7616 37.4899C83.9861 37.674 84.2351 37.8278 84.5345 37.6943C84.834 37.5609 84.9019 37.2703 84.8827 37C84.8686 36.7375 84.8006 36.4804 84.6829 36.2437C84.5651 36.007 84.3998 35.7955 84.1968 35.6215C84.1002 35.5187 83.9734 35.4473 83.8335 35.4171C83.6936 35.3868 83.5475 35.3992 83.4151 35.4526C83.1244 35.5809 83.1105 35.9121 83.1122 36.0573V36.059ZM86.1396 39.6945C83.8538 39.3836 81.7351 38.74 79.8602 37.4071C78.5806 36.4966 77.5117 35.3698 76.3227 34.3663C75.3321 33.5318 74.2962 32.8459 72.8844 33.1179C72.4683 33.1956 72.0592 33.3003 71.6448 33.3882C67.7313 34.2177 63.856 35.0775 59.9425 35.907C59.5943 35.983 59.4881 36.2026 59.7301 36.5489C60.3899 37.4916 60.9905 38.3008 61.5859 39.2789C61.9515 39.8803 62.4563 40.0172 63.1039 40.0543C64.6359 40.1388 66.1645 40.2553 67.6947 40.3533C71.1556 40.5729 74.6131 40.8601 78.0758 40.9885C81.2651 41.1135 84.5641 41.2014 87.6508 41.122C88.7667 41.0933 89.2263 40.8044 89.6545 39.6455C88.4446 39.6844 87.3165 39.8499 86.1396 39.6945Z" fill="#85C88B"/>
<path d="M39.7745 38.8921C41.4927 40.6895 43.6619 41.5444 45.8189 42.4093C47.2569 42.9854 48.7454 43.4381 50.1172 44.1713C52.5127 45.4501 53.5416 48.4402 52.4256 50.8442C52.1854 51.3628 51.8929 51.2108 51.5413 51.0655C47.9811 49.5839 45.2427 47.6006 42.9917 44.5683C42.7497 44.2422 42.0568 43.1881 41.7608 42.7894C42.0045 43.4872 42.3048 44.165 42.6592 44.8166C44.5515 48.3642 46.7538 50.3627 50.3191 52.4051C50.9354 52.7599 50.7579 52.9119 50.3191 53.216C48.5208 54.412 45.8903 54.2296 43.9022 52.7497C42.0533 51.3915 41.1272 49.4927 40.5161 47.4368C39.6979 44.6764 39.6039 41.8467 39.7745 38.8921Z" fill="#65AB56"/>
</svg>
