<svg width="152" height="149" viewBox="0 0 152 149" fill="none" xmlns="http://www.w3.org/2000/svg">
<path d="M48.761 76.4695L66.3991 83.492C65.0404 83.9448 64.1025 84.3237 63.1266 84.5652C62.2749 84.7731 62.0922 86.0173 62.0922 86.0173C62.0922 86.0173 62.2818 92.8789 62.4197 96.3097C62.4595 97.1672 62.2047 98.0131 61.6956 98.7143C52.4162 112.276 30.523 144.203 28.9609 146.672C28.0712 148.03 26.7298 148.573 25.2643 148.908C23.9298 149.197 22.6677 148.818 22.0229 147.567C21.1608 145.89 20.7091 144.213 21.6505 142.282C28.7919 127.723 51.0335 82.9387 51.0335 82.9387C51.0335 82.9387 51.3369 81.8923 50.9921 81.3323C50.3024 80.2054 49.6679 79.0484 49.0438 77.888C48.8403 77.5024 48.4576 77.1402 48.761 76.4695ZM40.0127 59.3658C43.161 60.9688 49.4128 64.242 49.4128 64.242C49.4128 64.242 50.4472 65.0268 50.1921 65.8417C49.9197 66.7774 49.7921 67.7499 49.5024 69.1149L64.6232 57.8835C64.1508 57.2932 63.6439 57.4374 63.2059 57.4207C61.8508 57.3637 60.4921 57.3134 59.137 57.3268C58.4645 57.3268 57.6749 56.5554 57.6749 56.5554C57.6749 56.5554 28.623 15.5905 19.1298 2.35358C17.8815 0.596265 16.1367 0.126753 14.1987 0.00602089C12.7608 -0.0811742 11.7849 0.787424 11.3815 2.04505C10.9297 3.42675 10.7573 4.81181 11.5573 6.23377C12.9815 8.76913 30.685 43.0301 38.2161 57.5682C38.5957 58.3431 39.2271 58.9748 40.0127 59.3658ZM151.117 64.7853C150.103 63.7188 148.948 62.8838 147.272 62.8402C144.282 62.763 104.686 60.4255 87.8751 59.453C86.9898 59.3781 86.1039 59.5891 85.3544 60.0533C82.344 61.881 76.2819 65.4695 76.2819 65.4695C76.2819 65.4695 75.0681 65.9289 74.4543 65.3219C73.7646 64.6277 72.9439 64.0307 71.8543 63.1219C72.7302 69.4603 73.5508 75.4097 74.375 81.3759C75.1371 81.2752 75.2646 80.7789 75.4991 80.4234C76.2267 79.3167 76.9474 78.2066 77.6164 77.0698C77.9612 76.503 79.0371 76.2347 79.0371 76.2347C79.0371 76.2347 130.348 72.4283 146.969 71.117C149.162 70.946 150.451 69.7252 151.527 68.1624C152.338 67.0155 152.044 65.7713 151.117 64.7987V64.7853ZM62.6922 66.764C61.7081 66.7732 60.7488 67.0655 59.9352 67.604C59.1216 68.1424 58.49 68.903 58.12 69.7899C57.75 70.6768 57.6581 71.6503 57.856 72.5879C58.0538 73.5255 58.5324 74.3851 59.2317 75.0586C59.9309 75.7322 60.8194 76.1894 61.7853 76.3727C62.7512 76.5561 63.7513 76.4573 64.6596 76.0889C65.5679 75.7206 66.3438 75.099 66.8896 74.3026C67.4354 73.5062 67.7266 72.5705 67.7267 71.6134C67.7244 70.9732 67.5923 70.3397 67.3379 69.7493C67.0835 69.1589 66.7118 68.6231 66.2441 68.1726C65.7764 67.7221 65.222 67.3658 64.6124 67.1241C64.0029 66.8824 63.3504 66.76 62.6922 66.764Z" fill="#4DBB81"/>
<path d="M18.4685 96.7794C22.5109 94.5508 26.8502 92.8613 31.3668 91.7574C32.4564 91.484 32.4599 92.1176 32.6056 92.6878C34.2469 99.1737 30.652 105.106 23.9304 107.13C19.9711 108.324 15.8347 108.798 11.8546 109.888C7.69047 111.032 3.52638 112.129 0.000779395 115C-0.0235111 112.562 0.524761 110.331 0.97587 108.067C2.25633 101.731 4.21345 95.5956 8.4747 90.3936C11.9101 86.2152 16.3067 83.7243 22.0878 84.0244C24.68 84.1678 26.7898 85.2115 28.7469 86.7655C29.7081 87.5258 29.5658 88.0827 28.3999 88.5095C26.7188 89.1653 25.0864 89.9307 23.514 90.8004C16.9209 94.2351 8.52675 100.694 4.7756 108.187C8.55797 103.596 13.2025 99.7264 18.4685 96.7794Z" fill="#65AB56"/>
<path d="M91.3956 29.0012C96.572 28.9476 101.586 30.7498 105.469 34.06C108.482 36.5844 110.676 39.7365 112.311 43.2343C113.005 44.7147 113.7 46.1985 113.95 47.8333C114.127 48.9813 113.873 49.7232 112.589 50.0857C109.84 50.8645 107.107 50.6195 104.337 50.2267C98.3003 49.3707 93.6312 46.2589 89.4585 42.2206C88.0507 40.819 86.5003 39.5583 84.831 38.4575C83.9697 37.8928 82.9927 37.5144 81.9664 37.3482C80.9402 37.1819 79.8889 37.2317 78.8844 37.4941C71.3027 39.2598 63.7348 40.9852 56.1635 42.7912C55.5248 42.9456 54.8756 43.0631 54.2334 43.1907C51.7478 43.6942 51.7652 43.7949 50.3766 41.8479C49.7517 40.9718 49.8906 40.4045 50.8973 39.9144C54.3485 38.2508 57.8873 36.7628 61.4992 35.4564C66.102 33.7315 70.8073 32.2743 75.5899 31.0925C80.5298 29.9176 85.5149 29.028 91.3956 29.0012ZM93.4125 33.2073C93.1382 33.2073 92.8189 33.1771 92.6626 33.4591C92.4474 33.8384 92.7807 34.0499 93.0098 34.2513C94.5022 35.6264 95.8757 37.1174 97.1166 38.7093C97.4637 39.1322 97.8108 39.5619 98.4669 39.5955C101.567 39.7465 104.667 39.9312 107.767 40.0587C108.586 40.0923 108.951 39.723 108.42 38.9677C107.057 37.0669 105.384 35.3924 103.466 34.0096C103.039 33.7241 102.537 33.5601 102.018 33.5363C100.05 33.3315 94.3532 33.2006 93.4125 33.2073ZM108.927 45.3895C109.031 46.4241 109.516 47.388 110.294 48.1052C110.499 48.2904 110.753 48.4168 111.027 48.4702C111.302 48.5235 111.587 48.5018 111.849 48.4073C112.506 48.1421 112.658 47.5144 112.544 46.9168C112.389 45.9746 111.929 45.104 111.232 44.4294C110.825 44.04 110.319 43.7345 109.721 43.946C109.051 44.1776 108.871 44.755 108.927 45.3895ZM99.7306 44.8792C99.7126 45.4166 99.8195 45.9511 100.044 46.4432C100.268 46.9353 100.603 47.3725 101.025 47.7225C101.473 48.0884 101.97 48.3939 102.567 48.1287C103.164 47.8635 103.299 47.2861 103.261 46.749C103.233 46.2274 103.097 45.7165 102.863 45.2461C102.628 44.7758 102.298 44.3555 101.893 44.0098C101.701 43.8055 101.448 43.6637 101.169 43.6036C100.89 43.5435 100.599 43.5681 100.335 43.6741C99.7549 43.9292 99.7271 44.5872 99.7306 44.8758V44.8792ZM105.767 52.1032C101.209 51.4855 96.9846 50.2066 93.2459 47.558C90.6943 45.7486 88.5628 43.5096 86.1918 41.5156C84.2165 39.8573 82.151 38.4944 79.3356 39.0349C78.506 39.1893 77.6902 39.3974 76.864 39.572C69.0601 41.2202 61.3326 42.9289 53.5287 44.5771C52.8344 44.7281 52.6226 45.1645 53.1052 45.8527C54.4209 47.7258 55.6185 49.3338 56.8058 51.2774C57.5348 52.4725 58.5415 52.7444 59.8329 52.8182C62.8878 52.9861 65.9357 53.2177 68.9872 53.4124C75.8885 53.8488 82.7828 54.4195 89.6876 54.6746C96.0473 54.923 102.626 55.0975 108.781 54.9398C111.006 54.8827 111.922 54.3087 112.776 52.0059C110.364 52.0831 108.114 52.412 105.767 52.1032Z" fill="#85C88B"/>
<path d="M14.1354 50C17.3964 53.569 21.5132 55.2663 25.6069 56.9837C28.336 58.1275 31.1609 59.0264 33.7644 60.4822C38.3107 63.0214 40.2634 68.9586 38.1455 73.7317C37.6896 74.7615 37.1345 74.4596 36.4671 74.1712C29.7104 71.2294 24.5132 67.2915 20.2412 61.2705C19.7819 60.6231 18.4669 58.53 17.9053 57.7384C18.3676 59.1239 18.9377 60.4698 19.6101 61.7636C23.2016 68.8076 27.3811 72.7758 34.1477 76.8311C35.3173 77.5355 34.9803 77.8374 34.1477 78.4412C30.7347 80.816 25.7423 80.4538 21.9692 77.5154C18.4603 74.8185 16.7026 71.0483 15.5429 66.9661C13.99 61.4852 13.8116 55.8667 14.1354 50Z" fill="#65AB56"/>
</svg>
