<svg width="207" height="78" viewBox="0 0 207 78" fill="none" xmlns="http://www.w3.org/2000/svg">
<rect width="207" height="78" fill="white"/>
<path d="M87.5682 17.3238C85.3161 15.4521 81.9227 15.7565 80.0358 17.9782L67.6491 32.5713L53.6039 16.0304H52.843L73.8729 40.7884L52.9495 65.4704H53.6952L67.6491 49.036L79.8684 63.477C81.7553 65.7139 85.1487 66.003 87.4008 64.1313C89.6529 62.2596 89.9573 58.8967 88.0703 56.675L74.6337 40.8037L88.2225 24.7802C90.1094 22.5585 89.8051 19.2107 87.5682 17.3238Z" fill="black"/>
<path d="M48.5062 65.4704H49.2518L70.1904 40.8037L49.1605 16.0457H48.3997L69.4295 40.8037L48.5062 65.4704Z" fill="black"/>
<path d="M44.0631 65.4704H44.8087L65.7473 40.8037L44.7174 16.0456L43.9565 16.0304L64.9864 40.8037L44.0631 65.4704Z" fill="black"/>
<path d="M40.0913 65.44H40.8522L61.7755 40.758L40.7608 16H40L61.0147 40.758L40.0913 65.44Z" fill="black"/>
<path d="M159.925 32.6017C159.636 24.6128 153.914 17.3543 145.651 16.5022C139.686 15.8783 134.589 17.5521 130.784 22.3607C130.343 22.8933 129.963 23.4715 129.521 24.065C124.622 14.6457 109.831 13.8392 103.683 22.0868C103.82 18.9369 101.476 16.0913 98.1896 16.0913C94.7354 16.0913 92.6506 18.7999 92.6506 21.6912V60.038C92.6506 63.0509 95.131 65.5161 98.1592 65.5009C101.203 65.5009 103.668 63.0357 103.683 60.038C103.683 60.038 103.713 36.8016 103.713 36.5125C103.759 31.4757 106.62 26.6671 112.174 26.6367C118.109 26.6062 120.635 31.3844 120.68 36.619C120.741 42.8123 120.741 60.038 120.741 60.038C120.741 63.0509 123.222 65.5009 126.25 65.5009C129.278 65.5009 131.758 63.0357 131.758 60.038C131.758 60.038 131.804 42.9036 131.85 36.756C131.88 31.7344 134.452 26.8041 140.082 26.6519C146.184 26.4845 148.817 31.3996 148.862 36.7712C148.893 40.3472 148.908 60.038 148.908 60.038C148.908 63.0509 151.388 65.5009 154.416 65.5009C157.445 65.5009 159.925 63.0357 159.925 60.038C159.955 60.0075 160.077 36.2995 159.925 32.6017Z" fill="black"/>
</svg>
